<svg width="22" height="6" viewBox="0 0 22 6" fill="none" xmlns="http://www.w3.org/2000/svg">
<path d="M2.99998 5.66671C2.26665 5.66671 1.63865 5.40538 1.11598 4.88271C0.593315 4.36004 0.332426 3.73249 0.333315 3.00004C0.333315 2.26671 0.594648 1.63871 1.11731 1.11604C1.63998 0.593376 2.26754 0.332487 2.99998 0.333376C3.73332 0.333376 4.36132 0.59471 4.88398 1.11738C5.40665 1.64004 5.66754 2.2676 5.66665 3.00004C5.66665 3.73338 5.40532 4.36138 4.88265 4.88404C4.35998 5.40671 3.73243 5.6676 2.99998 5.66671ZM11 5.66671C10.2666 5.66671 9.63865 5.40538 9.11598 4.88271C8.59332 4.36004 8.33243 3.73249 8.33332 3.00004C8.33332 2.26671 8.59465 1.63871 9.11732 1.11604C9.63998 0.593376 10.2675 0.332487 11 0.333376C11.7333 0.333376 12.3613 0.59471 12.884 1.11738C13.4066 1.64004 13.6675 2.2676 13.6666 3.00004C13.6666 3.73338 13.4053 4.36138 12.8826 4.88404C12.36 5.40671 11.7324 5.6676 11 5.66671ZM19 5.66671C18.2666 5.66671 17.6386 5.40538 17.116 4.88271C16.5933 4.36004 16.3324 3.73249 16.3333 3.00004C16.3333 2.26671 16.5946 1.63871 17.1173 1.11604C17.64 0.593376 18.2675 0.332487 19 0.333376C19.7333 0.333376 20.3613 0.59471 20.884 1.11738C21.4067 1.64004 21.6675 2.2676 21.6666 3.00004C21.6666 3.73338 21.4053 4.36138 20.8827 4.88404C20.36 5.40671 19.7324 5.6676 19 5.66671Z" fill="#1D2D5A"/>
</svg>
